<svg width="39" height="12" viewBox="0 0 39 12" fill="none" xmlns="http://www.w3.org/2000/svg">
<path d="M0.00426134 11V0.818182H1.84872V9.45384H6.3331V11H0.00426134ZM16.6355 5.90909C16.6355 7.00616 16.43 7.94579 16.019 8.72798C15.6113 9.50687 15.0545 10.1035 14.3485 10.5178C13.6459 10.9321 12.8488 11.1392 11.9572 11.1392C11.0656 11.1392 10.2669 10.9321 9.5609 10.5178C8.85825 10.1001 8.30143 9.50189 7.89045 8.72301C7.48278 7.94081 7.27894 7.00284 7.27894 5.90909C7.27894 4.81203 7.48278 3.87405 7.89045 3.09517C8.30143 2.31297 8.85825 1.71473 9.5609 1.30043C10.2669 0.886126 11.0656 0.678977 11.9572 0.678977C12.8488 0.678977 13.6459 0.886126 14.3485 1.30043C15.0545 1.71473 15.6113 2.31297 16.019 3.09517C16.43 3.87405 16.6355 4.81203 16.6355 5.90909ZM14.7811 5.90909C14.7811 5.13684 14.6601 4.48556 14.4181 3.95526C14.1795 3.42164 13.8481 3.01894 13.4238 2.74716C12.9996 2.47206 12.5107 2.33452 11.9572 2.33452C11.4037 2.33452 10.9148 2.47206 10.4906 2.74716C10.0663 3.01894 9.73325 3.42164 9.4913 3.95526C9.25266 4.48556 9.13335 5.13684 9.13335 5.90909C9.13335 6.68134 9.25266 7.33428 9.4913 7.8679C9.73325 8.3982 10.0663 8.8009 10.4906 9.07599C10.9148 9.34777 11.4037 9.48366 11.9572 9.48366C12.5107 9.48366 12.9996 9.34777 13.4238 9.07599C13.8481 8.8009 14.1795 8.3982 14.4181 7.8679C14.6601 7.33428 14.7811 6.68134 14.7811 5.90909ZM25.2003 4.0696C25.1174 3.80114 25.0031 3.56084 24.8572 3.34872C24.7147 3.13329 24.5424 2.94934 24.3402 2.79688C24.1413 2.64441 23.9126 2.53007 23.6541 2.45383C23.3956 2.37429 23.1139 2.33452 22.8089 2.33452C22.2621 2.33452 21.7749 2.47206 21.3473 2.74716C20.9197 3.02225 20.5833 3.42661 20.3381 3.96023C20.0961 4.49053 19.9751 5.13684 19.9751 5.89915C19.9751 6.66809 20.0961 7.31937 20.3381 7.85298C20.58 8.3866 20.9164 8.79261 21.3473 9.07102C21.7782 9.34612 22.2786 9.48366 22.8487 9.48366C23.3658 9.48366 23.8132 9.38423 24.1911 9.18537C24.5722 8.98651 24.8655 8.70478 25.071 8.3402C25.2765 7.9723 25.3793 7.54143 25.3793 7.04759L25.7969 7.11222H23.0327V5.67045H27.1641V6.89347C27.1641 7.76515 26.9785 8.51918 26.6072 9.15554C26.236 9.7919 25.7256 10.2824 25.076 10.6271C24.4264 10.9685 23.6806 11.1392 22.8388 11.1392C21.9008 11.1392 21.0772 10.9287 20.3679 10.5078C19.6619 10.0836 19.1101 9.48201 18.7124 8.70312C18.3179 7.92093 18.1207 6.9929 18.1207 5.91903C18.1207 5.09706 18.2367 4.36293 18.4688 3.71662C18.7041 3.07031 19.0322 2.52178 19.4531 2.07102C19.8741 1.61695 20.3679 1.27225 20.9347 1.03693C21.5014 0.798295 22.1179 0.678977 22.7841 0.678977C23.3475 0.678977 23.8729 0.761837 24.3601 0.927557C24.8473 1.08996 25.2798 1.32197 25.6577 1.62358C26.0388 1.92519 26.352 2.28314 26.5973 2.69744C26.8426 3.11174 27.0033 3.56913 27.0795 4.0696H25.2003ZM38.0456 5.90909C38.0456 7.00616 37.8401 7.94579 37.4292 8.72798C37.0215 9.50687 36.4647 10.1035 35.7587 10.5178C35.056 10.9321 34.2589 11.1392 33.3674 11.1392C32.4758 11.1392 31.677 10.9321 30.9711 10.5178C30.2684 10.1001 29.7116 9.50189 29.3006 8.72301C28.8929 7.94081 28.6891 7.00284 28.6891 5.90909C28.6891 4.81203 28.8929 3.87405 29.3006 3.09517C29.7116 2.31297 30.2684 1.71473 30.9711 1.30043C31.677 0.886126 32.4758 0.678977 33.3674 0.678977C34.2589 0.678977 35.056 0.886126 35.7587 1.30043C36.4647 1.71473 37.0215 2.31297 37.4292 3.09517C37.8401 3.87405 38.0456 4.81203 38.0456 5.90909ZM36.1912 5.90909C36.1912 5.13684 36.0703 4.48556 35.8283 3.95526C35.5897 3.42164 35.2582 3.01894 34.834 2.74716C34.4097 2.47206 33.9209 2.33452 33.3674 2.33452C32.8139 2.33452 32.325 2.47206 31.9007 2.74716C31.4765 3.01894 31.1434 3.42164 30.9015 3.95526C30.6628 4.48556 30.5435 5.13684 30.5435 5.90909C30.5435 6.68134 30.6628 7.33428 30.9015 7.8679C31.1434 8.3982 31.4765 8.8009 31.9007 9.07599C32.325 9.34777 32.8139 9.48366 33.3674 9.48366C33.9209 9.48366 34.4097 9.34777 34.834 9.07599C35.2582 8.8009 35.5897 8.3982 35.8283 7.8679C36.0703 7.33428 36.1912 6.68134 36.1912 5.90909Z" fill="#1D243C"/>
</svg>
